<mxfile host="Electron" agent="Mozilla/5.0 (Macintosh; Intel Mac OS X 10_15_7) AppleWebKit/537.36 (KHTML, like Gecko) draw.io/26.0.9 Chrome/128.0.6613.186 Electron/32.2.5 Safari/537.36" version="26.0.9">
  <diagram name="Page-1" id="HUHb7K12jmnsTm9ZX65A">
    <mxGraphModel dx="1550" dy="716" grid="1" gridSize="10" guides="1" tooltips="1" connect="1" arrows="1" fold="1" page="1" pageScale="1" pageWidth="827" pageHeight="1169" math="0" shadow="0">
      <root>
        <mxCell id="0" />
        <mxCell id="1" parent="0" />
        <mxCell id="s3PZVK2AVvHtejAA5DVi-18" value="OpenJDK 17" style="rounded=0;whiteSpace=wrap;html=1;fillColor=#d5e8d4;strokeColor=none;verticalAlign=top;" parent="1" vertex="1">
          <mxGeometry x="880" y="40" width="400" height="400" as="geometry" />
        </mxCell>
        <mxCell id="s3PZVK2AVvHtejAA5DVi-17" value="OpenJDK 11" style="rounded=0;whiteSpace=wrap;html=1;fillColor=#b1ddf0;strokeColor=none;verticalAlign=top;" parent="1" vertex="1">
          <mxGeometry x="240" y="40" width="640" height="400" as="geometry" />
        </mxCell>
        <mxCell id="s3PZVK2AVvHtejAA5DVi-16" value="OpenJDK 1.8" style="rounded=0;whiteSpace=wrap;html=1;fillColor=#fad9d5;strokeColor=none;verticalAlign=top;" parent="1" vertex="1">
          <mxGeometry x="40" y="40" width="200" height="400" as="geometry" />
        </mxCell>
        <mxCell id="s3PZVK2AVvHtejAA5DVi-9" style="edgeStyle=orthogonalEdgeStyle;rounded=0;orthogonalLoop=1;jettySize=auto;html=1;entryX=0;entryY=0.5;entryDx=0;entryDy=0;" parent="1" source="kVdJdiIQk1qGzvLNJ1Nr-21" target="s3PZVK2AVvHtejAA5DVi-2" edge="1">
          <mxGeometry relative="1" as="geometry" />
        </mxCell>
        <mxCell id="s3PZVK2AVvHtejAA5DVi-1" value="H27" style="ellipse;whiteSpace=wrap;html=1;aspect=fixed;fillColor=#d5e8d4;strokeColor=#82b366;" parent="1" vertex="1">
          <mxGeometry x="80" y="120" width="40" height="40" as="geometry" />
        </mxCell>
        <mxCell id="s3PZVK2AVvHtejAA5DVi-10" style="edgeStyle=orthogonalEdgeStyle;rounded=0;orthogonalLoop=1;jettySize=auto;html=1;exitX=1;exitY=0.5;exitDx=0;exitDy=0;entryX=0;entryY=0.5;entryDx=0;entryDy=0;" parent="1" source="s3PZVK2AVvHtejAA5DVi-2" target="s3PZVK2AVvHtejAA5DVi-3" edge="1">
          <mxGeometry relative="1" as="geometry" />
        </mxCell>
        <mxCell id="s3PZVK2AVvHtejAA5DVi-2" value="H28" style="ellipse;whiteSpace=wrap;html=1;aspect=fixed;fillColor=#d5e8d4;strokeColor=#82b366;" parent="1" vertex="1">
          <mxGeometry x="240" y="120" width="40" height="40" as="geometry" />
        </mxCell>
        <mxCell id="s3PZVK2AVvHtejAA5DVi-11" style="edgeStyle=orthogonalEdgeStyle;rounded=0;orthogonalLoop=1;jettySize=auto;html=1;exitX=1;exitY=0.5;exitDx=0;exitDy=0;entryX=0;entryY=0.5;entryDx=0;entryDy=0;" parent="1" source="kVdJdiIQk1qGzvLNJ1Nr-2" target="s3PZVK2AVvHtejAA5DVi-4" edge="1">
          <mxGeometry relative="1" as="geometry" />
        </mxCell>
        <mxCell id="s3PZVK2AVvHtejAA5DVi-3" value="H29" style="ellipse;whiteSpace=wrap;html=1;aspect=fixed;fillColor=#d5e8d4;strokeColor=#82b366;" parent="1" vertex="1">
          <mxGeometry x="400" y="120" width="40" height="40" as="geometry" />
        </mxCell>
        <mxCell id="s3PZVK2AVvHtejAA5DVi-12" style="edgeStyle=orthogonalEdgeStyle;rounded=0;orthogonalLoop=1;jettySize=auto;html=1;exitX=1;exitY=0.5;exitDx=0;exitDy=0;entryX=0;entryY=0.5;entryDx=0;entryDy=0;" parent="1" source="s3PZVK2AVvHtejAA5DVi-4" target="s3PZVK2AVvHtejAA5DVi-5" edge="1">
          <mxGeometry relative="1" as="geometry" />
        </mxCell>
        <mxCell id="s3PZVK2AVvHtejAA5DVi-4" value="H30" style="ellipse;whiteSpace=wrap;html=1;aspect=fixed;fillColor=#d5e8d4;strokeColor=#82b366;" parent="1" vertex="1">
          <mxGeometry x="560" y="120" width="40" height="40" as="geometry" />
        </mxCell>
        <mxCell id="s3PZVK2AVvHtejAA5DVi-13" style="edgeStyle=orthogonalEdgeStyle;rounded=0;orthogonalLoop=1;jettySize=auto;html=1;entryX=0;entryY=0.5;entryDx=0;entryDy=0;" parent="1" source="kVdJdiIQk1qGzvLNJ1Nr-8" target="s3PZVK2AVvHtejAA5DVi-6" edge="1">
          <mxGeometry relative="1" as="geometry" />
        </mxCell>
        <mxCell id="s3PZVK2AVvHtejAA5DVi-5" value="H31" style="ellipse;whiteSpace=wrap;html=1;aspect=fixed;fillColor=#d5e8d4;strokeColor=#82b366;" parent="1" vertex="1">
          <mxGeometry x="720" y="120" width="40" height="40" as="geometry" />
        </mxCell>
        <mxCell id="s3PZVK2AVvHtejAA5DVi-14" style="edgeStyle=orthogonalEdgeStyle;rounded=0;orthogonalLoop=1;jettySize=auto;html=1;exitX=1;exitY=0.5;exitDx=0;exitDy=0;" parent="1" source="s3PZVK2AVvHtejAA5DVi-6" target="s3PZVK2AVvHtejAA5DVi-7" edge="1">
          <mxGeometry relative="1" as="geometry" />
        </mxCell>
        <mxCell id="s3PZVK2AVvHtejAA5DVi-6" value="H32" style="ellipse;whiteSpace=wrap;html=1;aspect=fixed;fillColor=#d5e8d4;strokeColor=#82b366;" parent="1" vertex="1">
          <mxGeometry x="880" y="120" width="40" height="40" as="geometry" />
        </mxCell>
        <mxCell id="s3PZVK2AVvHtejAA5DVi-15" style="edgeStyle=orthogonalEdgeStyle;rounded=0;orthogonalLoop=1;jettySize=auto;html=1;exitX=1;exitY=0.5;exitDx=0;exitDy=0;entryX=0;entryY=0.5;entryDx=0;entryDy=0;dashed=1;" parent="1" source="kVdJdiIQk1qGzvLNJ1Nr-15" target="s3PZVK2AVvHtejAA5DVi-8" edge="1">
          <mxGeometry relative="1" as="geometry" />
        </mxCell>
        <mxCell id="s3PZVK2AVvHtejAA5DVi-7" value="H33" style="ellipse;whiteSpace=wrap;html=1;aspect=fixed;fillColor=#60a917;fontColor=#ffffff;strokeColor=#2D7600;" parent="1" vertex="1">
          <mxGeometry x="1040" y="120" width="40" height="40" as="geometry" />
        </mxCell>
        <mxCell id="s3PZVK2AVvHtejAA5DVi-19" style="edgeStyle=orthogonalEdgeStyle;rounded=0;orthogonalLoop=1;jettySize=auto;html=1;dashed=1;" parent="1" source="s3PZVK2AVvHtejAA5DVi-8" edge="1">
          <mxGeometry relative="1" as="geometry">
            <mxPoint x="1320" y="140" as="targetPoint" />
          </mxGeometry>
        </mxCell>
        <mxCell id="s3PZVK2AVvHtejAA5DVi-8" value="H34" style="ellipse;whiteSpace=wrap;html=1;aspect=fixed;dashed=1;fillColor=#f8cecc;strokeColor=#b85450;" parent="1" vertex="1">
          <mxGeometry x="1201" y="120" width="40" height="40" as="geometry" />
        </mxCell>
        <mxCell id="kVdJdiIQk1qGzvLNJ1Nr-1" value="M22" style="ellipse;whiteSpace=wrap;html=1;aspect=fixed;fillColor=#dae8fc;strokeColor=#6c8ebf;" parent="1" vertex="1">
          <mxGeometry x="450" y="320" width="40" height="40" as="geometry" />
        </mxCell>
        <mxCell id="kVdJdiIQk1qGzvLNJ1Nr-3" value="" style="edgeStyle=orthogonalEdgeStyle;rounded=0;orthogonalLoop=1;jettySize=auto;html=1;exitX=1;exitY=0.5;exitDx=0;exitDy=0;entryX=0;entryY=0.5;entryDx=0;entryDy=0;" parent="1" source="s3PZVK2AVvHtejAA5DVi-3" target="kVdJdiIQk1qGzvLNJ1Nr-2" edge="1">
          <mxGeometry relative="1" as="geometry">
            <mxPoint x="440" y="140" as="sourcePoint" />
            <mxPoint x="560" y="140" as="targetPoint" />
          </mxGeometry>
        </mxCell>
        <mxCell id="kVdJdiIQk1qGzvLNJ1Nr-4" style="edgeStyle=orthogonalEdgeStyle;rounded=0;orthogonalLoop=1;jettySize=auto;html=1;" parent="1" source="kVdJdiIQk1qGzvLNJ1Nr-2" target="kVdJdiIQk1qGzvLNJ1Nr-1" edge="1">
          <mxGeometry relative="1" as="geometry" />
        </mxCell>
        <mxCell id="kVdJdiIQk1qGzvLNJ1Nr-2" value="" style="ellipse;whiteSpace=wrap;html=1;aspect=fixed;fillColor=#66B2FF;" parent="1" vertex="1">
          <mxGeometry x="460" y="130" width="20" height="20" as="geometry" />
        </mxCell>
        <mxCell id="kVdJdiIQk1qGzvLNJ1Nr-5" value="2022.1.0-1" style="text;html=1;align=center;verticalAlign=middle;whiteSpace=wrap;rounded=0;" parent="1" vertex="1">
          <mxGeometry x="440" y="360" width="60" height="30" as="geometry" />
        </mxCell>
        <mxCell id="kVdJdiIQk1qGzvLNJ1Nr-6" value="29.0.6" style="text;html=1;align=center;verticalAlign=middle;whiteSpace=wrap;rounded=0;" parent="1" vertex="1">
          <mxGeometry x="440" y="105" width="60" height="30" as="geometry" />
        </mxCell>
        <mxCell id="kVdJdiIQk1qGzvLNJ1Nr-9" value="" style="edgeStyle=orthogonalEdgeStyle;rounded=0;orthogonalLoop=1;jettySize=auto;html=1;entryX=0;entryY=0.5;entryDx=0;entryDy=0;" parent="1" source="s3PZVK2AVvHtejAA5DVi-5" target="kVdJdiIQk1qGzvLNJ1Nr-8" edge="1">
          <mxGeometry relative="1" as="geometry">
            <mxPoint x="760" y="140" as="sourcePoint" />
            <mxPoint x="880" y="140" as="targetPoint" />
          </mxGeometry>
        </mxCell>
        <mxCell id="kVdJdiIQk1qGzvLNJ1Nr-12" style="edgeStyle=orthogonalEdgeStyle;rounded=0;orthogonalLoop=1;jettySize=auto;html=1;entryX=0.5;entryY=0;entryDx=0;entryDy=0;" parent="1" source="kVdJdiIQk1qGzvLNJ1Nr-8" target="kVdJdiIQk1qGzvLNJ1Nr-11" edge="1">
          <mxGeometry relative="1" as="geometry" />
        </mxCell>
        <mxCell id="kVdJdiIQk1qGzvLNJ1Nr-8" value="" style="ellipse;whiteSpace=wrap;html=1;aspect=fixed;fillColor=#66B2FF;" parent="1" vertex="1">
          <mxGeometry x="780" y="130" width="20" height="20" as="geometry" />
        </mxCell>
        <mxCell id="kVdJdiIQk1qGzvLNJ1Nr-10" value="31.0.3" style="text;html=1;align=center;verticalAlign=middle;whiteSpace=wrap;rounded=0;" parent="1" vertex="1">
          <mxGeometry x="760" y="105" width="60" height="30" as="geometry" />
        </mxCell>
        <mxCell id="kVdJdiIQk1qGzvLNJ1Nr-11" value="M23" style="ellipse;whiteSpace=wrap;html=1;aspect=fixed;fillColor=#dae8fc;strokeColor=#6c8ebf;" parent="1" vertex="1">
          <mxGeometry x="770" y="320" width="40" height="40" as="geometry" />
        </mxCell>
        <mxCell id="kVdJdiIQk1qGzvLNJ1Nr-13" value="2023.1.0-1" style="text;html=1;align=center;verticalAlign=middle;whiteSpace=wrap;rounded=0;" parent="1" vertex="1">
          <mxGeometry x="760" y="360" width="60" height="30" as="geometry" />
        </mxCell>
        <mxCell id="kVdJdiIQk1qGzvLNJ1Nr-16" value="" style="edgeStyle=orthogonalEdgeStyle;rounded=0;orthogonalLoop=1;jettySize=auto;html=1;exitX=1;exitY=0.5;exitDx=0;exitDy=0;entryX=0;entryY=0.5;entryDx=0;entryDy=0;" parent="1" source="s3PZVK2AVvHtejAA5DVi-7" target="kVdJdiIQk1qGzvLNJ1Nr-15" edge="1">
          <mxGeometry relative="1" as="geometry">
            <mxPoint x="1080" y="140" as="sourcePoint" />
            <mxPoint x="1201" y="140" as="targetPoint" />
          </mxGeometry>
        </mxCell>
        <mxCell id="kVdJdiIQk1qGzvLNJ1Nr-19" style="edgeStyle=orthogonalEdgeStyle;rounded=0;orthogonalLoop=1;jettySize=auto;html=1;" parent="1" source="kVdJdiIQk1qGzvLNJ1Nr-15" target="kVdJdiIQk1qGzvLNJ1Nr-17" edge="1">
          <mxGeometry relative="1" as="geometry" />
        </mxCell>
        <mxCell id="kVdJdiIQk1qGzvLNJ1Nr-15" value="" style="ellipse;whiteSpace=wrap;html=1;aspect=fixed;fillColor=#66B2FF;" parent="1" vertex="1">
          <mxGeometry x="1100" y="130" width="20" height="20" as="geometry" />
        </mxCell>
        <mxCell id="kVdJdiIQk1qGzvLNJ1Nr-17" value="M24" style="ellipse;whiteSpace=wrap;html=1;aspect=fixed;fillColor=#dae8fc;strokeColor=#6c8ebf;" parent="1" vertex="1">
          <mxGeometry x="1090" y="320" width="40" height="40" as="geometry" />
        </mxCell>
        <mxCell id="kVdJdiIQk1qGzvLNJ1Nr-18" value="2024.1.0-1" style="text;html=1;align=center;verticalAlign=middle;whiteSpace=wrap;rounded=0;" parent="1" vertex="1">
          <mxGeometry x="1080" y="360" width="60" height="30" as="geometry" />
        </mxCell>
        <mxCell id="kVdJdiIQk1qGzvLNJ1Nr-20" value="M21" style="ellipse;whiteSpace=wrap;html=1;aspect=fixed;fillColor=#dae8fc;strokeColor=#6c8ebf;" parent="1" vertex="1">
          <mxGeometry x="130" y="320" width="40" height="40" as="geometry" />
        </mxCell>
        <mxCell id="kVdJdiIQk1qGzvLNJ1Nr-22" value="" style="edgeStyle=orthogonalEdgeStyle;rounded=0;orthogonalLoop=1;jettySize=auto;html=1;entryX=0;entryY=0.5;entryDx=0;entryDy=0;" parent="1" source="s3PZVK2AVvHtejAA5DVi-1" target="kVdJdiIQk1qGzvLNJ1Nr-21" edge="1">
          <mxGeometry relative="1" as="geometry">
            <mxPoint x="120" y="140" as="sourcePoint" />
            <mxPoint x="240" y="140" as="targetPoint" />
          </mxGeometry>
        </mxCell>
        <mxCell id="kVdJdiIQk1qGzvLNJ1Nr-23" style="edgeStyle=orthogonalEdgeStyle;rounded=0;orthogonalLoop=1;jettySize=auto;html=1;entryX=0.5;entryY=0;entryDx=0;entryDy=0;" parent="1" source="kVdJdiIQk1qGzvLNJ1Nr-21" target="kVdJdiIQk1qGzvLNJ1Nr-20" edge="1">
          <mxGeometry relative="1" as="geometry" />
        </mxCell>
        <mxCell id="kVdJdiIQk1qGzvLNJ1Nr-21" value="" style="ellipse;whiteSpace=wrap;html=1;aspect=fixed;fillColor=#66B2FF;" parent="1" vertex="1">
          <mxGeometry x="140" y="130" width="20" height="20" as="geometry" />
        </mxCell>
        <mxCell id="kVdJdiIQk1qGzvLNJ1Nr-24" value="2021.1.0-1" style="text;html=1;align=center;verticalAlign=middle;whiteSpace=wrap;rounded=0;" parent="1" vertex="1">
          <mxGeometry x="120" y="360" width="60" height="30" as="geometry" />
        </mxCell>
        <mxCell id="kVdJdiIQk1qGzvLNJ1Nr-25" value="27.1.2" style="text;html=1;align=center;verticalAlign=middle;whiteSpace=wrap;rounded=0;" parent="1" vertex="1">
          <mxGeometry x="120" y="105" width="60" height="30" as="geometry" />
        </mxCell>
        <mxCell id="kVdJdiIQk1qGzvLNJ1Nr-26" value="33.0.3" style="text;html=1;align=center;verticalAlign=middle;whiteSpace=wrap;rounded=0;" parent="1" vertex="1">
          <mxGeometry x="1080" y="105" width="60" height="30" as="geometry" />
        </mxCell>
      </root>
    </mxGraphModel>
  </diagram>
</mxfile>
